<?xml version="1.0" encoding="UTF-8"?>
<svg version="1.1" xmlns="http://www.w3.org/2000/svg" width="159" height="169">
<path d="M0 0 C3.42337299 0.23943234 4.67689632 0.49681438 7.5 2.5625 C10.70161624 9.52253531 10.081244 17.93223523 10.03515625 25.47998047 C10.03369598 26.40160477 10.03223572 27.32322906 10.0307312 28.27278137 C10.02695422 30.25391053 10.02086897 32.23503642 10.01266479 34.21615219 C9.99980714 37.35171944 9.99336246 40.48724399 9.98852539 43.62283325 C9.97715189 50.26940817 9.95788489 56.91594742 9.9375 63.5625 C9.91388669 71.28835926 9.89352222 79.01419877 9.88156128 86.7400856 C9.87508025 89.8289381 9.8625778 92.9177291 9.84985352 96.00656128 C9.84622201 97.89483588 9.84287015 99.78311105 9.83984375 101.67138672 C9.83467743 102.52961533 9.82951111 103.38784393 9.82418823 104.27207947 C9.82411774 105.06247116 9.82404724 105.85286285 9.82397461 106.66720581 C9.82064369 107.69303678 9.82064369 107.69303678 9.81724548 108.7395916 C9.94591125 110.82374715 10.37201669 112.68127322 10.9375 114.6875 C13.23522623 115.47627797 13.23522623 115.47627797 15.9375 115.6875 C18.12709959 114.47817813 18.12709959 114.47817813 20 112.5625 C20.68449219 111.91925781 21.36898437 111.27601562 22.07421875 110.61328125 C24.19204106 108.42442087 26.05385262 106.07828322 27.9375 103.6875 C28.5975 103.6875 29.2575 103.6875 29.9375 103.6875 C30.16050781 103.130625 30.38351563 102.57375 30.61328125 102 C32.90206519 98.00306757 36.54889759 95.21606389 39.91796875 92.125 C42.17317856 89.94465764 42.17317856 89.94465764 41.890625 87.58203125 C40.91493266 85.64264278 39.85990242 84.06579856 38.5 82.375 C33.95651113 76.21634023 33.26411603 69.91077565 34.2265625 62.4453125 C35.38505359 57.03325711 37.6044283 53.58975514 41.37109375 49.57421875 C41.8418634 49.07140381 42.31263306 48.56858887 42.79766846 48.05053711 C49.93352871 40.49068985 57.27627215 33.12537786 64.61816406 25.76660156 C67.20317334 23.17176709 69.77731699 20.56644519 72.3515625 17.9609375 C74.00975905 16.2962197 75.66859067 14.63213418 77.328125 12.96875 C78.08869202 12.19583618 78.84925903 11.42292236 79.63287354 10.62658691 C85.89738372 4.38801709 91.00290829 0.11523538 100.25 0.125 C107.1100127 0.3419174 112.52821685 1.29750341 117.9375 5.6875 C124.16657991 12.97603407 125.58429972 19.26451586 124.9375 28.6875 C123.13978193 40.6788722 111.73158711 49.02740322 103.4921875 57.0546875 C101.73900462 58.78066236 99.98641676 60.50724179 98.234375 62.234375 C95.50544373 64.91977002 92.77291103 67.60106069 90.03027344 70.27246094 C87.36041238 72.87611928 84.70641423 75.49507983 82.0546875 78.1171875 C81.22468231 78.91824921 80.39467712 79.71931091 79.53952026 80.54464722 C78.78768463 81.2928775 78.035849 82.04110779 77.26123047 82.81201172 C76.59332489 83.46579803 75.92541931 84.11958435 75.23727417 84.79318237 C73.7224682 86.58733009 73.7224682 86.58733009 74.05253601 88.7371521 C75.03722587 90.9072831 76.05072876 92.12736914 77.77319336 93.76855469 C78.367285 94.34305359 78.96137665 94.91755249 79.57347107 95.50946045 C80.21824905 96.11993225 80.86302704 96.73040405 81.52734375 97.359375 C82.88257683 98.67665613 84.23738112 99.99437852 85.59179688 101.3125 C87.7301854 103.37657591 89.87298995 105.4355838 92.02416992 107.48632812 C94.10115911 109.47228627 96.15873872 111.47683346 98.21484375 113.484375 C99.17897438 114.38793732 99.17897438 114.38793732 100.1625824 115.30975342 C104.45881439 119.53307092 106.1009479 122.68314429 106.9375 128.6875 C105.890625 130.96484375 105.890625 130.96484375 104.1875 132.625 C103.63578125 133.19089844 103.0840625 133.75679687 102.515625 134.33984375 C100.27613958 136.25227561 99.07164776 136.67357291 96.09912109 136.98217773 C92.21684284 136.62033141 91.12220677 135.65905998 88.3515625 132.97265625 C87.49208008 132.15039551 86.63259766 131.32813477 85.74707031 130.48095703 C84.81991211 129.55911621 83.89275391 128.63727539 82.9375 127.6875 C81.92057278 126.68960971 80.90331068 125.69206059 79.88574219 124.69482422 C76.67106357 121.5281676 73.49047919 118.32841454 70.3125 115.125 C69.20206039 114.00952917 68.09138462 112.89429339 66.98046875 111.77929688 C64.29675841 109.08472369 61.61623064 106.38702327 58.9375 103.6875 C54.71468224 105.94830215 51.59932973 108.83260211 48.33203125 112.2734375 C47.25500679 113.38064576 46.17751771 114.48740221 45.09960938 115.59375 C43.4269167 117.32191401 41.75845071 119.05364081 40.09838867 120.79394531 C25.14244135 136.42920223 25.14244135 136.42920223 14.375 137.25 C6.40318679 136.72979349 -0.82768345 132.61686029 -6.0625 126.6875 C-9.47919522 120.86092355 -10.69510951 115.42843921 -10.8125 108.75 C-10.84069824 107.85128174 -10.86889648 106.95256348 -10.89794922 106.02661133 C-10.98117343 102.91345726 -11.02634404 99.80154814 -11.0625 96.6875 C-11.07764648 95.56891602 -11.09279297 94.45033203 -11.10839844 93.29785156 C-11.20178949 84.96782553 -11.17350736 76.64199289 -11.10400391 68.31201172 C-11.06990347 64.13133608 -11.05244088 59.9508162 -11.04052734 55.77001953 C-11.02052923 49.43470645 -10.97201151 43.10005843 -10.90789795 36.76504517 C-10.88603293 34.22113782 -10.87251288 31.67714455 -10.86749268 29.13314819 C-10.85823835 25.53082852 -10.81746464 21.93011063 -10.76953125 18.328125 C-10.77345383 17.24201431 -10.7773764 16.15590363 -10.78141785 15.03688049 C-10.61992325 6.71119013 -10.61992325 6.71119013 -7.67675781 3.00756836 C-4.83171863 0.48268907 -3.74360773 -0.10993593 0 0 Z M95.9375 22.6875 C94.42221986 24.00894356 92.94934094 25.38005317 91.5144043 26.78833008 C90.67391037 27.60960892 89.83341644 28.43088776 88.967453 29.27705383 C88.0745607 30.16144638 87.1816684 31.04583893 86.26171875 31.95703125 C85.3365596 32.87079025 84.41140045 33.78454926 83.45820618 34.72599792 C81.50693132 36.6563362 79.56029467 38.59123077 77.6159668 40.52856445 C75.12649513 43.00703293 72.61898938 45.46638033 70.10679913 47.92178822 C67.70781148 50.27455475 65.33004795 52.64839309 62.94921875 55.01953125 C62.04620529 55.8978511 61.14319183 56.77617096 60.21281433 57.68110657 C59.38808121 58.51184189 58.56334808 59.34257721 57.71362305 60.19848633 C56.98257858 60.92223953 56.25153412 61.64599274 55.49833679 62.39167786 C53.49066326 65.34474853 53.55021796 67.18551999 53.9375 70.6875 C55.04399669 72.71228463 55.04399669 72.71228463 56.9375 73.6875 C60.08897733 73.24929458 61.72122483 72.27490144 63.92578125 70.02734375 C64.46783203 69.48013672 65.00988281 68.93292969 65.56835938 68.36914062 C66.12330078 67.79357422 66.67824219 67.21800781 67.25 66.625 C67.79333984 66.07650391 68.33667969 65.52800781 68.89648438 64.96289062 C71.72818097 62.07770272 74.42989327 59.12712255 77.04296875 56.04296875 C80.21906585 52.37191844 83.63031939 49.01050311 87.125 45.6484375 C88.24612564 44.56253293 89.36721899 43.476595 90.48828125 42.390625 C92.22277984 40.71198231 93.96178418 39.03955569 95.71630859 37.38183594 C97.43129926 35.75750766 99.12314978 34.11186188 100.8125 32.4609375 C101.60756958 31.724767 101.60756958 31.724767 102.41870117 30.97372437 C104.08397094 29.39831387 104.08397094 29.39831387 105.9375 26.6875 C105.8997166 23.40236024 105.8997166 23.40236024 104.9375 20.6875 C100.96382556 19.0685956 99.35214118 20.38353527 95.9375 22.6875 Z " fill="#ABC3CF" transform="translate(29.0625,14.3125)"/>
<path d="M0 0 C1.32 0.33 2.64 0.66 4 1 C4 1.66 4 2.32 4 3 C3.01 3.66 2.02 4.32 1 5 C0.5515655 7.00663979 0.5515655 7.00663979 0.63250732 9.35838318 C0.62693817 10.27393982 0.62136902 11.18949646 0.6156311 12.13279724 C0.62484589 13.14012405 0.63406067 14.14745087 0.64355469 15.18530273 C0.64151031 16.2439151 0.63946594 17.30252747 0.63735962 18.39321899 C0.63434154 21.90685062 0.65286094 25.42001758 0.671875 28.93359375 C0.67493114 31.36735416 0.67680836 33.80111632 0.67755127 36.23487854 C0.68216093 41.34195624 0.69661148 46.44887684 0.71875 51.5559082 C0.74701785 58.11120325 0.75795931 64.66637431 0.7624321 71.22172451 C0.76658443 76.24963122 0.77640062 81.27751271 0.78830719 86.30540657 C0.79401576 88.72279724 0.79877252 91.14019034 0.80257416 93.55758476 C0.8094303 96.9335343 0.82306026 100.30938474 0.83886719 103.68530273 C0.83998505 104.69060532 0.84110291 105.6959079 0.84225464 106.73167419 C0.84796478 107.65005066 0.85367493 108.56842712 0.85955811 109.51463318 C0.86253277 110.31307364 0.86550743 111.11151411 0.86857224 111.93414974 C0.92436263 114.19868296 0.92436263 114.19868296 2 117 C1.01 117.99 1.01 117.99 0 119 C-2.19427114 114.53117951 -2.44394063 110.20157697 -2.625 105.3125 C-2.66222168 104.39573486 -2.69944336 103.47896973 -2.73779297 102.53442383 C-3.25096516 88.0272589 -3.1442301 73.51255325 -3 59 C-2.98904297 57.8905603 -2.97808594 56.78112061 -2.96679688 55.63806152 C-2.88879268 48.06267405 -2.79283527 40.48770774 -2.68060303 32.91275024 C-2.64356904 30.34831911 -2.60958702 27.78384206 -2.57867432 25.21932983 C-2.5335237 21.59521499 -2.47551584 17.97152668 -2.4140625 14.34765625 C-2.40250122 13.24606171 -2.39093994 12.14446716 -2.37902832 11.00949097 C-2.3591687 9.99710358 -2.33930908 8.98471619 -2.31884766 7.94165039 C-2.30552399 7.05602921 -2.29220032 6.17040802 -2.2784729 5.25794983 C-2 3 -2 3 0 0 Z " fill="#6F7F86" transform="translate(21,18)"/>
<path d="M0 0 C0.33 0 0.66 0 1 0 C1.01417969 0.83402344 1.02835937 1.66804688 1.04296875 2.52734375 C1.37602494 10.38566957 2.6998567 15.47610659 7 22 C8.44279796 24.62373579 9.6309479 27.01304996 10 30 C8.82836914 31.73925781 8.82836914 31.73925781 7.03515625 33.453125 C6.08286133 34.38125 6.08286133 34.38125 5.11132812 35.328125 C4.43521484 35.96234375 3.75910156 36.5965625 3.0625 37.25 C2.05413086 38.22453125 2.05413086 38.22453125 1.02539062 39.21875 C-0.63912593 40.82424114 -2.31415428 42.41696904 -4 44 C-4 41 -4 41 -1.55859375 38.44140625 C0.0035176 36.97981686 1.58448644 35.54279993 3.17773438 34.11523438 C4.89637657 32.54937798 4.89637657 32.54937798 7 30 C6.98857555 26.86970189 5.47862717 25.06986583 3.5625 22.6875 C-0.49417563 17.18871135 -1.37555151 11.75992725 -1 5 C-0.71479595 3.32442621 -0.40044304 1.65182755 0 0 Z " fill="#536468" transform="translate(64,74)"/>
<path d="M0 0 C0.33 0.66 0.66 1.32 1 2 C2.65 1.34 4.3 0.68 6 0 C1.01595832 6.03331362 -4.41915303 11.5184171 -10 17 C-10.33 15.68 -10.66 14.36 -11 13 C-9.68 12.67 -8.36 12.34 -7 12 C-6.9175 11.38125 -6.835 10.7625 -6.75 10.125 C-6 8 -6 8 -3.9375 6.75 C-3.298125 6.5025 -2.65875 6.255 -2 6 C-2.33 4.68 -2.66 3.36 -3 2 C-2.01 1.34 -1.02 0.68 0 0 Z " fill="#848F9B" transform="translate(141,56)"/>
<path d="M0 0 C0.33 0.66 0.66 1.32 1 2 C-0.04285156 2.06058594 -1.08570313 2.12117188 -2.16015625 2.18359375 C-6.76479493 3.16260645 -8.27915251 4.6445623 -11.4375 8.0625 C-12.30246094 8.98160156 -13.16742188 9.90070312 -14.05859375 10.84765625 C-15.01958984 11.91306641 -15.01958984 11.91306641 -16 13 C-16.66 12.01 -17.32 11.02 -18 10 C-16 8 -16 8 -13.5 6.625 C-10.89024509 5.22868861 -10.89024509 5.22868861 -9.9375 2.875 C-9 1 -9 1 -7.1875 0.25 C-4.77172869 -0.02608815 -2.42947614 -0.06748545 0 0 Z " fill="#5A6772" transform="translate(133,33)"/>
<path d="M0 0 C0.33 0.99 0.66 1.98 1 3 C-0.66666667 4.66666667 -2.33333333 6.33333333 -4 8 C-4.495 8.5775 -4.99 9.155 -5.5 9.75 C-7.5327485 11.44395709 -9.41794457 11.65107359 -12 12 C-11.60167969 11.54109375 -11.20335937 11.0821875 -10.79296875 10.609375 C-7.42522268 6.71869245 -7.42522268 6.71869245 -4.3125 2.625 C-3 1 -3 1 0 0 Z " fill="#96A3AA" transform="translate(60,117)"/>
<path d="M0 0 C3.47905046 1.15968349 3.81138872 1.83747927 5.625 4.875 C6.05039063 5.57367188 6.47578125 6.27234375 6.9140625 6.9921875 C8.90565108 10.67447717 9.11090646 13.57295122 9.0625 17.6875 C9.05347656 18.68136719 9.04445312 19.67523438 9.03515625 20.69921875 C9.02355469 21.45847656 9.01195312 22.21773437 9 23 C8.67 23 8.34 23 8 23 C7.94392578 21.98679687 7.94392578 21.98679687 7.88671875 20.953125 C7.82097656 20.06109375 7.75523437 19.1690625 7.6875 18.25 C7.62949219 17.36828125 7.57148438 16.4865625 7.51171875 15.578125 C6.93045806 12.64963601 5.77740256 11.34445592 4 9 C4 7.68 4 6.36 4 5 C3.01 5.33 2.02 5.66 1 6 C0 1.125 0 1.125 0 0 Z " fill="#848DAA" transform="translate(145,20)"/>
<path d="M0 0 C1.32 0.33 2.64 0.66 4 1 C3.67 1.99 3.34 2.98 3 4 C2.34 4 1.68 4 1 4 C0.67 5.98 0.34 7.96 0 10 C-2.31 9.67 -4.62 9.34 -7 9 C-6.57847656 8.51789063 -6.15695313 8.03578125 -5.72265625 7.5390625 C-5.17480469 6.90742187 -4.62695312 6.27578125 -4.0625 5.625 C-3.51722656 4.99851562 -2.97195312 4.37203125 -2.41015625 3.7265625 C-0.93041376 2.04367666 -0.93041376 2.04367666 0 0 Z " fill="#BBCEDA" transform="translate(96,81)"/>
<path d="M0 0 C1 3 1 3 0.29296875 5.0078125 C-0.25423828 6.05582031 -0.25423828 6.05582031 -0.8125 7.125 C-1.34810547 8.18074219 -1.34810547 8.18074219 -1.89453125 9.2578125 C-3 11 -3 11 -5 12 C-5.84454356 8.62182575 -6.10844919 6.32534757 -5 3 C-4.360625 2.87625 -3.72125 2.7525 -3.0625 2.625 C-2.0415625 2.315625 -2.0415625 2.315625 -1 2 C-0.67 1.34 -0.34 0.68 0 0 Z " fill="#99A5B3" transform="translate(152,44)"/>
<path d="M0 0 C0.66 0.33 1.32 0.66 2 1 C1.01 1.804375 1.01 1.804375 0 2.625 C-2.28566853 4.88545719 -2.28566853 4.88545719 -2.3125 8.125 C-2.17528074 10.93939173 -2.17528074 10.93939173 -1 13 C-2.65 12.67 -4.3 12.34 -6 12 C-5.814375 10.88625 -5.62875 9.7725 -5.4375 8.625 C-4.68319343 5.17431139 -4.68319343 5.17431139 -6 3 C-4.03533587 1.93224776 -2.03144641 0.93446535 0 0 Z " fill="#83949D" transform="translate(86,74)"/>
<path d="M0 0 C1.32 0.66 2.64 1.32 4 2 C1.03 4.97 -1.94 7.94 -5 11 C-5.66 10.01 -6.32 9.02 -7 8 C-6.360625 7.896875 -5.72125 7.79375 -5.0625 7.6875 C-4.381875 7.460625 -3.70125 7.23375 -3 7 C-2.67 6.01 -2.34 5.02 -2 4 C-1.34870203 2.65909241 -0.68486725 1.32407669 0 0 Z " fill="#88989E" transform="translate(65,133)"/>
<path d="M0 0 C0.99 0.66 1.98 1.32 3 2 C1.6905332 3.33631236 0.37734515 4.66897925 -0.9375 6 C-1.66839844 6.7425 -2.39929688 7.485 -3.15234375 8.25 C-5 10 -5 10 -6 10 C-6.36458333 5.50347222 -6.36458333 5.50347222 -4.6875 3.1875 C-3 2 -3 2 0 2 C0 1.34 0 0.68 0 0 Z " fill="#89949B" transform="translate(81,118)"/>
<path d="M0 0 C0.33 0 0.66 0 1 0 C1.02505615 0.59014893 1.0501123 1.18029785 1.07592773 1.78833008 C1.19200052 4.46326814 1.31467572 7.1378638 1.4375 9.8125 C1.47681641 10.74126953 1.51613281 11.67003906 1.55664062 12.62695312 C1.59853516 13.51962891 1.64042969 14.41230469 1.68359375 15.33203125 C1.72025146 16.15421143 1.75690918 16.9763916 1.79467773 17.82348633 C1.93427772 20.17905178 1.93427772 20.17905178 3 23 C2.34 23.66 1.68 24.32 1 25 C-0.27861615 22.44276771 -0.11336609 20.63262898 -0.09765625 17.7734375 C-0.09443359 16.7421875 -0.09121094 15.7109375 -0.08789062 14.6484375 C-0.07951172 13.56820312 -0.07113281 12.48796875 -0.0625 11.375 C-0.05798828 10.28703125 -0.05347656 9.1990625 -0.04882812 8.078125 C-0.03701776 5.38536211 -0.02054778 2.69270812 0 0 Z " fill="#9EB0B2" transform="translate(20,112)"/>
<path d="M0 0 C1.3921875 0.2784375 1.3921875 0.2784375 2.8125 0.5625 C6.01343771 1.24123881 6.01343771 1.24123881 9 0 C9 1.32 9 2.64 9 4 C6.36 4.66 3.72 5.32 1 6 C0 2 0 2 0 0 Z " fill="#9AA7AF" transform="translate(39,129)"/>
<path d="M0 0 C0.33 0 0.66 0 1 0 C1.53583096 2.85776514 1.78434148 4.25736803 1 7 C-1.71313602 10.0410394 -4.76651249 12.52997482 -8 15 C-8.66 14.67 -9.32 14.34 -10 14 C-9.04287109 13.11248047 -9.04287109 13.11248047 -8.06640625 12.20703125 C-7.24011719 11.41683594 -6.41382813 10.62664063 -5.5625 9.8125 C-4.73878906 9.03519531 -3.91507813 8.25789063 -3.06640625 7.45703125 C-0.87705998 4.8538199 -0.32606505 3.33772044 0 0 Z " fill="#A8BAC7" transform="translate(136,37)"/>
<path d="M0 0 C1.2065625 0.0309375 1.2065625 0.0309375 2.4375 0.0625 C1.48328192 1.21176266 0.52397955 2.35680541 -0.4375 3.5 C-0.97117187 4.13808594 -1.50484375 4.77617188 -2.0546875 5.43359375 C-3.5625 7.0625 -3.5625 7.0625 -5.5625 8.0625 C-3.38616071 0.08258929 -3.38616071 0.08258929 0 0 Z " fill="#72858B" transform="translate(94.5625,64.9375)"/>
<path d="M0 0 C0.33 0.66 0.66 1.32 1 2 C2.65 1.34 4.3 0.68 6 0 C4.38405168 2.04119788 2.7143618 4.04072937 1 6 C0.34 6 -0.32 6 -1 6 C-1.66 4.68 -2.32 3.36 -3 2 C-2.01 1.34 -1.02 0.68 0 0 Z " fill="#95A2AD" transform="translate(141,56)"/>
<path d="M0 0 C0 3 0 3 -1 6 C-4.4375 7.75 -4.4375 7.75 -8 9 C-8.66 8.67 -9.32 8.34 -10 8 C-9.67 7.34 -9.34 6.68 -9 6 C-8.4225 5.896875 -7.845 5.79375 -7.25 5.6875 C-3.96486163 4.68370772 -2.28947698 2.48026672 0 0 Z " fill="#8997A0" transform="translate(95,81)"/>
<path d="M0 0 C1.14926266 0.95421808 2.29430541 1.91352045 3.4375 2.875 C4.07558594 3.40867188 4.71367188 3.94234375 5.37109375 4.4921875 C7 6 7 6 8 8 C7.38125 7.67 6.7625 7.34 6.125 7 C4.08981656 5.85806765 4.08981656 5.85806765 2 6 C1.01 6 0.02 6 -1 6 C-0.835 5.38125 -0.67 4.7625 -0.5 4.125 C0.07634644 2.03936614 0.07634644 2.03936614 0 0 Z " fill="#C0D4DB" transform="translate(122,126)"/>
<path d="M0 0 C1.65 1.65 3.3 3.3 5 5 C4.34 5 3.68 5 3 5 C3 6.32 3 7.64 3 9 C2.34 9 1.68 9 1 9 C0.63877119 7.68942607 0.28619689 6.37646376 -0.0625 5.0625 C-0.35833984 3.96615234 -0.35833984 3.96615234 -0.66015625 2.84765625 C-0.77230469 2.23792969 -0.88445312 1.62820312 -1 1 C-0.67 0.67 -0.34 0.34 0 0 Z " fill="#BDD4DC" transform="translate(106,110)"/>
<path d="M0 0 C0.33 0.99 0.66 1.98 1 3 C-1.19909405 5.19909405 -3.56070254 7.07423885 -6 9 C-6.66 8.67 -7.32 8.34 -8 8 C-5.36 5.36 -2.72 2.72 0 0 Z " fill="#B6C3D0" transform="translate(112,65)"/>
<path d="M0 0 C0.99 0.99 1.98 1.98 3 3 C2.01 3.495 2.01 3.495 1 4 C0.01 3.34 -0.98 2.68 -2 2 C-1.34 1.34 -0.68 0.68 0 0 Z M-3 3 C-3 3.99 -3 4.98 -3 6 C-4.32 6.33 -5.64 6.66 -7 7 C-5.68 5.68 -4.36 4.36 -3 3 Z " fill="#BCCEDD" transform="translate(110,69)"/>
<path d="" fill="#000000" transform="translate(0,0)"/>
<path d="" fill="#000000" transform="translate(0,0)"/>
<path d="" fill="#000000" transform="translate(0,0)"/>
<path d="" fill="#000000" transform="translate(0,0)"/>
<path d="" fill="#000000" transform="translate(0,0)"/>
<path d="" fill="#000000" transform="translate(0,0)"/>
<path d="" fill="#000000" transform="translate(0,0)"/>
<path d="" fill="#000000" transform="translate(0,0)"/>
<path d="" fill="#000000" transform="translate(0,0)"/>
<path d="" fill="#000000" transform="translate(0,0)"/>
<path d="" fill="#000000" transform="translate(0,0)"/>
<path d="" fill="#000000" transform="translate(0,0)"/>
<path d="" fill="#000000" transform="translate(0,0)"/>
<path d="" fill="#000000" transform="translate(0,0)"/>
<path d="" fill="#000000" transform="translate(0,0)"/>
<path d="" fill="#000000" transform="translate(0,0)"/>
<path d="" fill="#000000" transform="translate(0,0)"/>
<path d="" fill="#000000" transform="translate(0,0)"/>
<path d="" fill="#000000" transform="translate(0,0)"/>
<path d="" fill="#000000" transform="translate(0,0)"/>
<path d="" fill="#000000" transform="translate(0,0)"/>
<path d="" fill="#000000" transform="translate(0,0)"/>
<path d="" fill="#000000" transform="translate(0,0)"/>
<path d="" fill="#000000" transform="translate(0,0)"/>
<path d="" fill="#000000" transform="translate(0,0)"/>
<path d="" fill="#000000" transform="translate(0,0)"/>
<path d="" fill="#000000" transform="translate(0,0)"/>
<path d="" fill="#0000FF" transform="translate(0,0)"/>
<path d="" fill="#000000" transform="translate(0,0)"/>
<path d="" fill="#000000" transform="translate(0,0)"/>
<path d="" fill="#000000" transform="translate(0,0)"/>
<path d="" fill="#010000" transform="translate(0,0)"/>
<path d="" fill="#000000" transform="translate(0,0)"/>
<path d="" fill="#000000" transform="translate(0,0)"/>
<path d="" fill="#000000" transform="translate(0,0)"/>
<path d="" fill="#FF0000" transform="translate(0,0)"/>
<path d="" fill="#000000" transform="translate(0,0)"/>
<path d="" fill="#000000" transform="translate(0,0)"/>
<path d="" fill="#000000" transform="translate(0,0)"/>
<path d="" fill="#000000" transform="translate(0,0)"/>
<path d="" fill="#000000" transform="translate(0,0)"/>
<path d="" fill="#000000" transform="translate(0,0)"/>
<path d="" fill="#000000" transform="translate(0,0)"/>
<path d="" fill="#000000" transform="translate(0,0)"/>
<path d="" fill="#000000" transform="translate(0,0)"/>
<path d="" fill="#000000" transform="translate(0,0)"/>
<path d="" fill="#000000" transform="translate(0,0)"/>
<path d="" fill="#000000" transform="translate(0,0)"/>
<path d="" fill="#000000" transform="translate(0,0)"/>
<path d="" fill="#000000" transform="translate(0,0)"/>
<path d="" fill="#000000" transform="translate(0,0)"/>
<path d="" fill="#000000" transform="translate(0,0)"/>
<path d="" fill="#000000" transform="translate(0,0)"/>
<path d="" fill="#000000" transform="translate(0,0)"/>
</svg>
